<?xml version="1.0" encoding="UTF-8" standalone="no"?>
<!DOCTYPE svg PUBLIC "-//W3C//DTD SVG 1.1//EN" "http://www.w3.org/Graphics/SVG/1.1/DTD/svg11.dtd">
<svg width="100%" height="100%" viewBox="0 0 738 738" version="1.1" xmlns="http://www.w3.org/2000/svg" xmlns:xlink="http://www.w3.org/1999/xlink" xml:space="preserve" xmlns:serif="http://www.serif.com/" style="fill-rule:evenodd;clip-rule:evenodd;stroke-linejoin:round;stroke-miterlimit:2;">
    <path d="M364,23.2C361.7,28.9 355.3,42.3 350,53C328.6,95.7 308.8,128.3 282.7,163.3C263.9,188.6 263.6,188.9 251.6,194.8C245.8,197.7 240.1,200.2 238.8,200.4C236.1,200.8 218.8,192.5 212,187.5C209.5,185.6 204.2,182.1 200.1,179.6L192.8,175.1L187.7,178.2C171,188.3 135.4,223.4 124.5,240.4L120.8,246.3L131.7,262.4C143.8,280.1 148,287.4 148,290.6C148,291.7 145.7,297.4 142.9,303.1C137.8,313.4 126,343.6 126,346.2C126,350.5 117.8,358 113.2,358C112.1,358 109,358.6 106.4,359.4C93.5,363.2 78.3,367 76.3,367C75,367 73.6,367.9 72.9,369.1C69.5,375.5 67,421.3 68.9,440.5C71,460.4 71.9,466.3 73.2,467.6C73.9,468.3 80.1,470.3 87,472C93.9,473.8 103.8,476.3 109,477.7C115.1,479.2 119.3,480.9 120.6,482.3C121.8,483.5 124.9,490.8 127.5,498.5C130.1,506.2 135.6,519.4 139.6,527.9C144.2,537.4 147,544.5 147,546.5C147,549.8 140,561.7 125.8,582.8L120.8,590.2L125.7,597.2C137,613.7 163.4,640.8 180.4,653.5L192.3,662.3L198.2,659.1C201.4,657.3 210.9,651.6 219.2,646.4C229.5,640 235.3,637 237.3,637C239.1,637 247.7,640.7 258.4,646C268.4,650.9 281.4,656.6 287.3,658.5C300.4,662.7 303.2,664.1 304.8,667.2C307,671.5 314.9,707.3 315,713.1C315,716.8 351.6,720.6 377.5,719.7C394.9,719 413.4,716.9 418.1,714.9C420.5,714 420.9,712.9 422.4,705.2C426.4,684.4 431.1,667.2 433.3,665.2C434.6,664 440.9,661.2 447.5,659C454.1,656.7 467.7,650.9 477.6,646C487.6,641 496.7,637 497.9,637C500.9,637 505.6,639.5 525.9,651.8L543.3,662.3L546.6,660.5C560.4,653.1 593.6,620.6 609.2,599.3L615.8,590.3L604.8,573.9C598.8,564.9 592.7,555.1 591.3,552.2C588.9,547.3 588.8,546.5 589.9,542.7C590.6,540.4 592.2,536.7 593.5,534.5C597.2,528 605.6,508.2 608.5,499C613.9,482 614.7,480.9 623.5,479C626.3,478.4 632.9,476.5 638.2,474.8C643.6,473.2 651.5,471 655.7,470.1C664.5,468.1 663.7,469.4 665.9,453.5C668.7,433.1 669.1,419 667.5,399C665.3,373 664,367 660.1,367C659.1,367 654.8,366 650.4,364.9C646.1,363.7 640,362.1 637,361.4C613.6,355.6 613.7,355.7 609.5,342.8C605.9,331.6 596.8,309.5 592.4,301C586.4,289.7 586.5,289.4 605.6,261C616.1,245.4 615.6,247 611.3,240.3C602,225.7 573.8,196.9 555.1,183L544.6,175.2L540,177.5C537.5,178.8 531.4,182.5 526.4,185.7C516.3,192.4 500.8,201 498.9,201C498.2,201 492.1,198.3 485.4,194.9C471.6,188.1 470.4,187 456.5,167.5C452.2,161.4 447.5,155.1 446.1,153.5C442.8,149.6 428.2,127.7 419.7,114C403.7,87.9 381.5,45.6 373.9,26.5C371.1,19.3 368.7,13.4 368.5,13.2C368.4,13.1 366.4,17.6 364,23.2M391.3,109.5C409.5,139.4 412.7,144.4 419.4,153.8C427.8,165.6 436.3,183 438.4,192.7C441.5,206.7 440.1,223.1 434.9,234.9C431.9,241.8 422.5,253.5 415.8,258.8C401.7,269.8 389.2,288 385.4,303C379.2,327.4 390.4,359.3 410.3,373.4C423.7,382.9 430.3,384.9 451.8,386L468.1,386.8L472.8,390.8C481.7,398.3 488.6,411 493,428C494.1,432.2 496.1,444.6 497.5,455.6C498.9,466.7 500.7,478.2 501.6,481.1C507.6,501.2 519.2,511.3 536.8,511.9L539.1,512L535.9,517.7C526.3,534.6 509.6,554.7 494.1,567.9C477.4,582.2 449.4,598.2 429.9,604.8C419.6,608.2 393.4,613.8 392.4,612.8C392.1,612.4 394.2,608.7 397,604.5C406.2,590.9 410,579.6 410,566.3C410,551 405.5,540.2 394.6,529.5C385.7,520.7 377.4,515.9 363.9,511.6C346,505.9 340.8,502.3 332.1,489.6C324.3,478.4 322.7,465 327.6,453.5C334.6,437.3 336.6,422.3 333.5,409.2C331.6,401.1 326.1,390.3 321.8,386.4C310.4,375.9 302.5,371.7 289.8,369.2C280.8,367.5 271.7,368.2 257.1,372.1C242.2,375.9 229,374.1 221.7,367.2C217.9,363.6 211.7,351.1 209.7,343C204.7,322.3 207.2,309.4 220.6,287.7C228.9,274.2 246.3,249.7 264,226.5C280.9,204.3 283.4,200.9 302,174.8C316.7,154.1 323.4,144.3 330,134C338.2,121.2 356.8,89 362.7,77.4L368.4,66.3L375.6,80.9C379.5,88.9 386.6,101.8 391.3,109.5M466.7,219.7C471.6,225.7 485,243.4 489.8,250.4C491.9,253.3 496,259 499.1,263.1C502.2,267.2 507.1,274.3 510,279C512.9,283.7 518.6,292.4 522.5,298.5C526.5,304.5 533.9,317.5 539,327.2C551.2,350.9 558,371.1 561.6,394.5C563.4,406.2 563.4,435 561.6,446C560.8,450.7 560.4,454.8 560.7,455.2C560.9,455.7 560.6,456 560.1,456C559.5,456 559,457.1 559,458.5C559,461.2 553.8,477.6 551.5,482C550.7,483.5 548.7,485.9 547,487.4C544.4,489.5 542.8,490 538.1,490C531.3,490 528.4,488.2 524.6,481.7C521.3,476.1 520.2,470.9 518.4,451.7C516.9,435.8 513.3,418.9 509.2,408.5C496.1,375.4 484.3,366.4 451,364.3C438.3,363.5 435.7,363.1 430.2,360.6C422.6,357.1 413.8,348.2 409.7,339.7C404.6,329.1 404.1,313.5 408.6,299.6C410,295.1 412.3,292.5 426.5,278.5C444.5,260.7 450.5,253.1 455,242.4C458.1,234.9 461,223.1 461,217.9C461,216.3 461.4,215 461.9,215C462.4,215 464.6,217.1 466.7,219.7M191.3,357.2C199.5,377.5 211.4,389.4 228,393.6C236.5,395.8 252.3,395 264,391.9C269.2,390.6 275.6,389.6 280.5,389.6C288,389.5 289,389.8 295.9,393.4C308.6,400.3 314.9,411.3 313.7,424.4C313.3,427.8 310.9,436.8 308.3,444.5C303.8,457.6 303.5,459.1 303.6,468.5C303.6,476.3 304.1,479.9 305.9,485C310,496.4 315.1,505.2 321.5,511.6C330.4,520.6 338.2,525.2 351.7,529.5C367.4,534.5 371.3,536.7 378.7,544.2C387.1,552.7 390.5,560.1 389.7,568C388.4,579.8 382.5,590.8 370.5,603.8C361.6,613.3 360.8,613.6 344.1,612.2C316.3,609.7 292.4,601.1 263.4,582.9C248.6,573.7 243.2,569.3 229.3,555.2C207.1,532.8 188.7,501.6 181.1,473.5C174.7,450 173.5,441.2 173.5,419.5C173.6,398.7 174.5,391.6 180,369.8C182,362 187,347.7 187.5,348.2C187.7,348.4 189.4,352.4 191.3,357.2" style="fill-rule:nonzero;"/>
</svg>
